<svg viewBox="0 0 128 128" xmlns="http://www.w3.org/2000/svg"><path d="M79.285.014A39.026 39.026 0 0057.95 5.688l-.004.002-29.662 18.856a34.211 34.211 0 00-15.537 23.12 35.794 35.794 0 003.485 23.015c-2.502 3.833-4.213 8.128-4.975 12.644a36.774 36.774 0 006.23 27.702l.003.002c0 .001 0 .003.002.004 11.796 17.054 34.794 22.02 52.58 11.375l.007-.004 29.685-18.877a34.295 34.295 0 0015.475-23.117v-.004a35.682 35.682 0 00-3.502-22.927c7.807-12.458 7.381-28.378-1.106-40.37v-.02l-.088-.129C103.182 6.274 91.412.336 79.285.014zM79.262 1c11.813.313 23.277 6.1 30.455 16.514l.008.01.006.01c8.408 11.756 8.816 27.45 1.038 39.654l-.155.244.136.256a34.706 34.706 0 013.512 22.544v.006a33.303 33.303 0 01-15.028 22.452h-.002L69.55 121.563c-17.347 10.373-39.746 5.533-51.247-11.1l-.002-.004-.002-.002a35.78 35.78 0 01-6.066-26.964v-.004a32.296 32.296 0 014.957-12.515l.165-.247-.14-.261a34.807 34.807 0 01-3.492-22.625v-.006a33.218 33.218 0 0115.09-22.45h.002l29.65-18.85A38.048 38.048 0 0179.262 1zm.713 13.266c-2.422-.13-4.89.107-7.326.74l-.007.003-.008.002c-2.208.653-4.257 1.517-6.163 2.705l-.004.002-29.49 18.852a21 21 0 00-9.62 14.114v.002a22.204 22.204 0 003.81 16.852c7.167 10.324 21.115 13.339 31.907 6.924l.007-.002 11.173-7.097c.473-.288 1.117-.532 1.742-.752 2.714-.673 5.485.342 7.13 2.615.881 1.318 1.28 2.985.983 4.605-.348 1.578-1.213 2.877-2.593 3.761L51.965 96.438c-.463.288-1.045.489-1.673.692-2.704.727-5.501-.379-7.128-2.715l-.002-.004-.002-.002c-.78-1.16-1.189-2.722-1.093-4.066v-.002l.165-1.435-1.46-.503-.01-.002c-4.13-1.27-7.988-3.147-11.434-5.758l-.013-.01-2.161-1.43-.739 2.395-.587 2.845-.002.008c-1.014 5.956.273 11.971 3.787 16.842l.004.006.002.002a23.985 23.985 0 0025.75 9.56l.245-.064.023-.06c2.104-.632 4.135-1.493 6.016-2.63l.004-.004 29.557-18.815.004-.002a20.848 20.848 0 009.493-14.114v-.002l.002-.002c.976-5.9-.38-11.915-3.896-16.784-5.724-8.27-15.953-12.119-25.751-9.564l-.004.002h-.004c-2.159.595-4.275 1.502-6.169 2.754l-11.293 7.202c-.44.282-1.035.48-1.709.684-2.66.693-5.516-.285-7.091-2.613l-.002-.004-.002-.004c-.871-1.247-1.263-2.993-.979-4.548v-.002c.288-1.607 1.146-2.857 2.535-3.787l.006-.004.002-.002L75.96 31.49l.004-.002c.458-.286 1.036-.483 1.664-.688 2.72-.692 5.505.283 7.13 2.612.784 1.166 1.194 2.702 1.097 4.14l-.143 1.451 1.448.425h.002l.004.002a38.648 38.648 0 0111.496 5.762l.006.003 2.091 1.444.737-2.403v-.004a22.376 22.376 0 00-3.09-19.698l-.002-.004a24.067 24.067 0 00-18.429-10.264zm-.052.99a23.065 23.065 0 0117.67 9.846l.001.002v.002a21.383 21.383 0 012.956 18.832l-.002.002-.341 1.112-.96-.66A39.631 39.631 0 0087.45 38.48l-.002-.002-.668-.195.066-.657v-.008c.111-1.668-.347-3.396-1.264-4.76l-.002-.004-.002-.002c-1.859-2.67-5.103-3.805-8.206-3.012l-.015.004-.016.004c-.64.21-1.304.422-1.909.8l-.002.003-29.623 19.02-.002.002c-1.585 1.058-2.634 2.575-2.969 4.442h.002c-.335 1.834.102 3.808 1.136 5.29l.002.003s0 .002.002.003c1.817 2.681 5.117 3.808 8.169 3.008l.01-.002.007-.002c.688-.207 1.37-.42 1.967-.802l11.303-7.208.004-.002c1.793-1.185 3.814-2.054 5.884-2.624 9.402-2.448 19.196 1.239 24.685 9.179l.004.004.002.004c3.36 4.653 4.653 10.391 3.719 16.039a19.856 19.856 0 01-9.043 13.442h-.002l-29.548 18.809h-.002a25.154 25.154 0 01-6.025 2.638l-.068.02a22.984 22.984 0 01-24.615-9.185l-.002-.004-.004-.006c-3.358-4.65-4.59-10.388-3.618-16.101l.573-2.774.334-1.081 1.015.67.012.008.015.01c3.542 2.679 7.5 4.6 11.718 5.897l.684.237-.078.674-.002.012c-.114 1.594.345 3.334 1.264 4.698l.002.004.002.002c1.85 2.662 5.091 3.956 8.212 3.114l.011-.004.012-.004c.644-.207 1.308-.425 1.91-.8l.003-.002L82.05 78.427c1.599-1.024 2.634-2.577 3.031-4.39v-.007l.002-.008c.352-1.898-.111-3.827-1.134-5.355l-.006-.005-.003-.008a7.739 7.739 0 00-8.198-3.004l-.024.006-.021.007c-.647.227-1.354.483-1.96.851l-.003.004-11.18 7.1c-10.353 6.143-23.707 3.252-30.578-6.652l-.002-.002-.002-.004a21.213 21.213 0 01-3.64-16.098v-.002A20.01 20.01 0 0137.5 37.412l.004-.002 29.49-18.85.006-.004c1.812-1.129 3.768-1.956 5.9-2.587h.003a22.954 22.954 0 017.02-.712z"/></svg>
