<svg viewBox="0 0 128 128" xmlns="http://www.w3.org/2000/svg"><path d="M75.132.01c-5.425-.148-10.885 1.223-15.66 4.266l-21.93 13.988a25.68 25.68 0 00-11.621 17.204 26.998 26.998 0 002.556 17.071c-1.825 2.848-3.097 6.016-3.694 9.347a27.34 27.34 0 004.673 20.677c8.904 12.736 26.483 16.516 39.214 8.406l21.961-13.992.004-.002a25.68 25.68 0 0011.601-17.203 27.009 27.009 0 00-2.556-17.095c1.825-2.848 3.097-6.014 3.694-9.345v-.002A27.321 27.321 0 0098.7 12.662l-.413-.58-.06.09C92.64 4.564 83.952.253 75.132.01zm-.028.993c8.732.24 17.395 4.553 22.774 12.252l.155.225c3.999 5.724 5.586 12.795 4.362 19.678l.002-.002a24.774 24.774 0 01-3.678 9.228l-.161.245.136.26a26.027 26.027 0 012.565 16.707v.002a24.681 24.681 0 01-11.155 16.538l-.002.002-21.966 13.994c-12.266 7.813-29.265 4.171-37.87-8.141l-.002-.002-.002-.002A26.346 26.346 0 0125.76 62.06a24.77 24.77 0 013.678-9.229l.159-.244-.136-.26a26.02 26.02 0 01-2.564-16.686 24.682 24.682 0 0111.177-16.538l.002-.002 21.93-13.989c4.598-2.931 9.859-4.253 15.098-4.11zm-1.087 9.76a17.92 17.92 0 00-3.595.552h-.004a16.576 16.576 0 00-4.6 2.015l-21.97 13.996a15.625 15.625 0 00-7.061 10.47v.001a16.652 16.652 0 002.837 12.58l.004.004.002.004a17.94 17.94 0 0019.252 7.156h.002l.002-.002a16.613 16.613 0 004.597-2.02l8.378-5.36a4.368 4.368 0 011.203-.526 4.761 4.761 0 015.107 1.891l.002.004.002.004c.686.954.955 2.146.744 3.302a4.073 4.073 0 01-1.837 2.727h-.002L55.11 71.55a4.332 4.332 0 01-1.209.53 4.745 4.745 0 01-5.102-1.892l-.002-.004v-.002a4.414 4.414 0 01-.795-2.932l.112-1.217-1.203-.363a27.833 27.833 0 01-8.423-4.21l-1.678-1.23-.624 1.913c-.231.69-.415 1.395-.55 2.11l-.002.004v.004a16.627 16.627 0 002.839 12.558l.002.002.002.004a17.94 17.94 0 0019.242 7.13l.008-.002a16.713 16.713 0 004.581-2.013v-.002L84.275 67.95l.002-.002a15.638 15.638 0 007.062-10.48c.788-4.41-.237-8.95-2.841-12.593l-.002-.002a17.933 17.933 0 00-19.244-7.136l-.002.002a16.307 16.307 0 00-4.597 2.022l-8.374 5.358v-.002c-.374.24-.784.42-1.213.535a4.757 4.757 0 01-5.097-1.874l-.002-.002-.002-.002a4.328 4.328 0 01-.744-3.304v-.002a4.051 4.051 0 011.837-2.72h.002l21.969-13.991a4.338 4.338 0 011.21-.531 4.762 4.762 0 015.104 1.893l.002.002a4.43 4.43 0 01.792 2.938l-.108 1.215 1.2.364a27.714 27.714 0 018.422 4.212l1.678 1.23.624-1.907v-.004a16.11 16.11 0 00.553-2.114v-.002l.002-.004a16.63 16.63 0 00-2.842-12.571 17.93 17.93 0 00-15.624-7.714l-.025-.002zM57.72 83.954l-.124.015h.068zm16.349-72.2a16.934 16.934 0 0114.782 7.288l.002.003.002.002a15.638 15.638 0 012.677 11.824 15.104 15.104 0 01-.52 1.986v.002l-.2.61-.573-.42a28.696 28.696 0 00-8.72-4.36h-.003l-.426-.13.037-.413v-.002a5.422 5.422 0 00-.97-3.593l-.001-.002a5.759 5.759 0 00-6.165-2.285h-.002l-.002.002a5.32 5.32 0 00-1.49.654L50.529 36.912a5.043 5.043 0 00-2.285 3.38 5.32 5.32 0 00.913 4.056 5.754 5.754 0 006.163 2.263h.002a5.318 5.318 0 001.49-.657h.002l8.374-5.358a15.303 15.303 0 014.314-1.898 16.932 16.932 0 0118.18 6.74l.002.005.002.004a15.634 15.634 0 012.676 11.846 14.646 14.646 0 01-6.616 9.818h-.002L61.775 81.1c-1.33.843-2.78 1.48-4.3 1.892l-.006.002a16.938 16.938 0 01-18.18-6.74l-.002-.003-.002-.003A15.633 15.633 0 0136.61 64.44c.128-.673.3-1.338.518-1.987l.002-.002.198-.608.573.42v-.002a28.829 28.829 0 008.723 4.36l.428.13-.039.413v.002a5.406 5.406 0 00.971 3.591 5.744 5.744 0 006.167 2.285h.002v-.002a5.315 5.315 0 001.49-.651L77.61 58.4a5.065 5.065 0 002.285-3.388v-.002a5.319 5.319 0 00-.91-4.052l-.003-.002a5.758 5.758 0 00-6.166-2.285h-.002l-.002.002a5.366 5.366 0 00-1.483.65l-8.38 5.358a15.618 15.618 0 01-4.316 1.9h-.002a16.94 16.94 0 01-18.19-6.768l-.003-.002-.002-.004a15.658 15.658 0 01-2.673-11.835v-.002a14.634 14.634 0 016.617-9.807h.002L66.35 14.168a15.57 15.57 0 014.323-1.894 16.937 16.937 0 013.394-.52zm-55.031 95.998l.002.006a6.812 6.812 0 00-4.581 1.504h-.002l-.002.002a4.94 4.94 0 00-1.785 3.833 4.86 4.86 0 00.339 1.97h.002v.001c.209.52.5.999.862 1.425l.01.011.012.012c.413.43.893.791 1.42 1.072.465.271.946.516 1.44.728l.012.004.01.004c.37.14.906.342 1.618.59h.006c.56.19.98.35 1.273.46.266.103.622.268 1.062.485l.006.004.007.004c.308.14.59.329.84.556.189.2.349.427.469.675l.002.006.003.006c.133.259.2.546.196.837v.039a2.09 2.09 0 01-.734 1.72 3.25 3.25 0 01-2.119.64h-.038a3.956 3.956 0 01-2.29-.674 4.324 4.324 0 01-1.525-1.845l-.186-.43-3.489 1.277.142.451a6.677 6.677 0 002.697 3.58h.004a7.994 7.994 0 004.55 1.288 7.462 7.462 0 004.914-1.575l.007-.008.01-.008a5.52 5.52 0 001.917-4.471 5.93 5.93 0 00-.215-1.62 6.261 6.261 0 00-.516-1.3l-.006-.012-.008-.012a4.606 4.606 0 00-.897-1.073l-.004-.004c-.307-.282-.63-.545-.969-.79l-.007-.005-.008-.004a8.19 8.19 0 00-1.21-.665l-.01-.004a20.783 20.783 0 00-1.146-.5l-.006-.002-1.19-.444-.006-.002a33.456 33.456 0 01-1.895-.697l-.002-.002a3.577 3.577 0 01-1.037-.74l-.014-.014-.013-.014a1.23 1.23 0 01-.419-.913v-.021a1.46 1.46 0 01.56-1.217 2.84 2.84 0 011.76-.492l.021.002.02-.002c.66-.015 1.312.15 1.887.474.455.26.816.66 1.03 1.14l.183.413 3.392-1.155-.136-.458a5.377 5.377 0 00-2.176-2.951l-.004-.002-.006-.004c-.89-.566-1.904-.843-2.942-.967l.068-.068-1.116-.055-.022.002-.023-.002zm64.98.3v3.671h5.266v15.952h3.736v-15.952h5.283v-3.67zm-54.773.022l.225.657 6.496 18.944h3.475l6.692-19.601h-4.008l-4.285 13.314.002-.002c-.045.137-.07.279-.112.416-.043-.137-.07-.278-.115-.414v-.002l-4.337-13.312zm21.333 0v19.601h13.119v-3.597h-9.36v-4.698h5.662v-3.597h-5.663v-4.112h8.777v-3.597zm19.17 0v19.601l12.865.02v-3.672h-9.108v-15.95zm33.257 0v19.601h13.118v-3.597h-9.36v-4.698h5.662v-3.597h-5.663v-4.112h8.775v-3.597zm-83.928.67a6.019 6.019 0 013.459.93c.718.48 1.226 1.186 1.558 1.975l-1.7.58c-.3-.476-.62-.951-1.114-1.233v-.002h-.002a4.66 4.66 0 00-2.378-.595 3.83 3.83 0 00-2.38.667l-.011.008-.012.01a2.456 2.456 0 00-.944 2.049 2.22 2.22 0 00.745 1.627 4.57 4.57 0 001.304.935l.01.004.01.006c.45.19 1.098.426 1.976.728l1.167.436c.368.148.733.306 1.093.475l.006.004.005.002c.372.165.728.36 1.066.585l.004.002c.303.22.593.457.868.71l.004.004.006.004c.277.242.513.525.704.839.181.343.326.706.428 1.081v.004c.123.444.184.902.18 1.363v.015l.002.014a4.53 4.53 0 01-1.568 3.67 6.466 6.466 0 01-4.263 1.363h-.035a7.005 7.005 0 01-4-1.128l-.002-.002c-.959-.632-1.646-1.567-2.077-2.622l1.773-.65c.4.727.875 1.421 1.564 1.892h.002a4.94 4.94 0 002.849.84 4.243 4.243 0 002.763-.838l.012-.01.01-.008a3.084 3.084 0 001.089-2.537 2.769 2.769 0 00-.3-1.28 3.68 3.68 0 00-.65-.935l-.01-.012-.011-.01a4.256 4.256 0 00-1.117-.74 14.25 14.25 0 00-1.131-.516v-.002h-.002a35.87 35.87 0 00-1.305-.47l-.004-.002a65.463 65.463 0 01-1.585-.576l-.007-.002a12.02 12.02 0 01-1.32-.67l-.01-.005-.01-.006a4.656 4.656 0 01-1.164-.877 4.192 4.192 0 01-.69-1.14v-.002c-.2-.5-.292-1.036-.272-1.574v-.023a3.944 3.944 0 011.429-3.068v-.002a5.821 5.821 0 013.907-1.28zm65.933.3h12.3v1.687h-5.282v15.951h-1.752v-15.951H85.01zm-54.375.022h1.922l4.117 12.63c.227.687.417 1.386.571 2.093h.97c.152-.707.343-1.406.569-2.093l.002-.002 4.062-12.628h1.897l-6.015 17.616h-2.056zm20.936 0h10.55v1.613h-8.777v6.096h5.663v1.613h-5.663v6.682h9.36v1.612H51.57zm19.17 0h1.771v15.95h9.109v1.688l-10.88-.02zm33.256 0h10.548v1.613h-8.775v6.096h5.663v1.613h-5.663v6.682h9.36v1.612h-11.133z"/></svg>
