<svg viewBox="0 0 128 128" xmlns="http://www.w3.org/2000/svg"><path d="M18.868 127.993a7.56 7.56 0 01-4.32-1.22 6.226 6.226 0 01-2.516-3.337l2.624-.961a4.86 4.86 0 001.717 2.073 4.487 4.487 0 002.597.767 3.78 3.78 0 002.479-.75 2.608 2.608 0 00.923-2.16 2.295 2.295 0 00-.254-1.08 3.202 3.202 0 00-.567-.821 3.78 3.78 0 00-.993-.659 13.871 13.871 0 00-1.112-.507 35.94 35.94 0 00-1.302-.47 65.874 65.874 0 01-1.62-.589 12.792 12.792 0 01-1.409-.712 5.2 5.2 0 01-1.312-.989 4.73 4.73 0 01-.788-1.3 4.379 4.379 0 01-.308-1.794 4.476 4.476 0 011.62-3.482 6.366 6.366 0 014.32-1.41 6.566 6.566 0 013.78 1.021 4.919 4.919 0 011.992 2.7l-2.533.864a2.986 2.986 0 00-1.247-1.383 4.195 4.195 0 00-2.16-.54 3.364 3.364 0 00-2.106.589 1.976 1.976 0 00-.761 1.658 1.739 1.739 0 00.588 1.29 4.11 4.11 0 001.194.853c.432.184 1.08.421 1.96.724l1.188.443c.259.102.642.264 1.139.496a7.754 7.754 0 011.155.632 10.286 10.286 0 01.935.761 4.136 4.136 0 01.815.972 5.815 5.815 0 01.48 1.21 5.47 5.47 0 01.2 1.512 5.065 5.065 0 01-1.76 4.114 7.02 7.02 0 01-4.638 1.485zm17.176-.324l-6.431-18.753h3.002l4.26 13.073a21.317 21.317 0 01.589 2.16 21.317 21.317 0 01.588-2.16l4.207-13.073h2.975L38.83 127.67zm14.87 0v-18.753h11.63v2.625H53.7v5.145h5.708v2.625H53.7v5.734h9.433v2.624zm19.32 0v-18.753h2.786v16.075h9.18v2.7zm22.451-16.074v16.074h-2.764v-16.074h-5.308v-2.7h13.396v2.7zm11.064 16.074v-18.753h11.63v2.625h-8.844v5.145h5.707v2.625h-5.707v5.734h9.433v2.624z" fill="#4a4a55"/><path d="M98.49 12.572C89.667-.058 72.242-3.799 59.645 4.23l-22.1 14.098a25.378 25.378 0 00-11.49 17.003A26.722 26.722 0 0028.69 52.47a25.464 25.464 0 00-3.78 9.487 27.052 27.052 0 004.622 20.46c8.823 12.624 26.247 16.365 38.844 8.342l22.139-14.104a25.378 25.378 0 0011.468-17.003 26.733 26.733 0 00-2.635-17.16 25.464 25.464 0 003.78-9.487 27.036 27.036 0 00-4.622-20.453" fill="#ff3e00"/><path d="M57.485 83.625a17.576 17.576 0 01-18.86-6.993 16.258 16.258 0 01-2.781-12.284 15.724 15.724 0 01.54-2.068l.416-1.268 1.134.831a28.547 28.547 0 008.639 4.32l.82.248-.075.82a4.951 4.951 0 00.891 3.29 5.286 5.286 0 005.68 2.105 4.86 4.86 0 001.361-.594l22.138-14.098a4.606 4.606 0 002.079-3.083 4.86 4.86 0 00-.837-3.71 5.302 5.302 0 00-5.68-2.106 4.903 4.903 0 00-1.356.594l-8.444 5.4a16.242 16.242 0 01-4.493 1.976 17.576 17.576 0 01-18.871-7.02 16.28 16.28 0 01-2.781-12.305A15.248 15.248 0 0143.9 27.46l22.138-14.104a16.199 16.199 0 014.498-1.97 17.57 17.57 0 0118.86 7.019 16.258 16.258 0 012.782 12.3 15.724 15.724 0 01-.54 2.068l-.416 1.269-1.134-.832a28.423 28.423 0 00-8.64-4.32l-.82-.248.076-.82a4.968 4.968 0 00-.891-3.294 5.302 5.302 0 00-5.68-2.106 4.86 4.86 0 00-1.361.6L50.633 37.117a4.584 4.584 0 00-2.078 3.078 4.86 4.86 0 00.836 3.71 5.297 5.297 0 005.675 2.084 4.86 4.86 0 001.361-.6l8.44-5.399a15.929 15.929 0 014.492-1.976 17.57 17.57 0 0118.86 6.992A16.258 16.258 0 0191 57.33a15.26 15.26 0 01-6.895 10.227L61.967 81.654a16.344 16.344 0 01-4.498 1.976" fill="#fff"/></svg>
