<svg viewBox="0 0 128 128" xmlns="http://www.w3.org/2000/svg"><path d="M110.484 16.88C98.764-.137 75.822-5.056 58.154 5.663l-29.888 19a33.977 33.977 0 00-15.434 22.963 35.582 35.582 0 003.57 23.127 33.046 33.046 0 00-5.072 12.807 36.557 36.557 0 006.198 27.55c11.74 16.978 34.62 21.92 52.326 11.324l29.912-19.02a34.062 34.062 0 0015.371-22.964 35.478 35.478 0 00-3.59-23.044c7.947-12.47 7.529-28.511-1.063-40.524zM55.17 112.758a23.67 23.67 0 01-25.421-9.443c-3.465-4.798-4.735-10.722-3.734-16.604l.586-2.835.54-1.752 1.607 1.063c3.524 2.671 7.468 4.587 11.68 5.882l1.084.375-.122 1.068c-.106 1.482.332 3.148 1.189 4.42 1.752 2.522 4.798 3.733 7.735 2.94.645-.208 1.275-.42 1.814-.756L81.914 78.12c1.502-.962 2.46-2.4 2.835-4.11.329-1.775-.106-3.59-1.067-5.026-1.776-2.463-4.798-3.569-7.735-2.834-.646.226-1.334.48-1.881.813l-11.262 7.153c-10.656 6.334-24.42 3.358-31.494-6.84a21.878 21.878 0 01-3.754-16.604 20.665 20.665 0 019.466-13.89l29.724-19c1.877-1.17 3.898-2.023 6.089-2.671 9.615-2.503 19.747 1.271 25.421 9.404a22.05 22.05 0 013.046 19.419l-.543 1.772-1.54-1.063a39.442 39.442 0 00-11.74-5.882l-1.068-.313.106-1.067c.105-1.565-.332-3.21-1.189-4.485-1.756-2.523-4.798-3.587-7.735-2.836-.645.211-1.275.418-1.814.755L45.933 49.979c-1.501 1.002-2.462 2.397-2.776 4.149-.312 1.709.107 3.586 1.068 4.962 1.71 2.527 4.815 3.59 7.696 2.835.688-.207 1.333-.414 1.857-.75l11.387-7.262c1.858-1.228 3.943-2.123 6.074-2.71 9.678-2.523 19.771 1.275 25.421 9.448 3.465 4.798 4.799 10.719 3.836 16.538a20.51 20.51 0 01-9.342 13.889l-29.786 18.96a25.848 25.848 0 01-6.194 2.71zm0 0"/></svg>
