<svg viewBox="0 0 128 128" xmlns="http://www.w3.org/2000/svg"><path d="M75.145.01c-5.374-.147-10.777 1.209-15.5 4.22l-22.1 14.098a25.378 25.378 0 00-11.49 17.004 26.723 26.723 0 002.634 17.137 25.465 25.465 0 00-3.78 9.488 27.052 27.052 0 004.622 20.46c8.823 12.624 26.249 16.365 38.846 8.341l22.137-14.104a25.378 25.378 0 0011.469-17.004 26.734 26.734 0 00-2.635-17.16 25.465 25.465 0 003.78-9.487 27.036 27.036 0 00-4.622-20.453l-.015.022C92.976 4.678 84.1.257 75.145.01zM74.06 10.846a17.57 17.57 0 0115.336 7.559 16.258 16.258 0 012.781 12.299 15.724 15.724 0 01-.54 2.068l-.415 1.27-1.135-.832a28.424 28.424 0 00-8.639-4.32l-.82-.249.074-.82a4.968 4.968 0 00-.89-3.293 5.302 5.302 0 00-5.68-2.106 4.86 4.86 0 00-1.361.598l-22.14 14.1a4.584 4.584 0 00-2.078 3.076 4.86 4.86 0 00.836 3.711 5.297 5.297 0 005.676 2.084 4.86 4.86 0 001.362-.6l8.44-5.4a15.929 15.929 0 014.491-1.975 17.57 17.57 0 0118.86 6.993A16.258 16.258 0 0191 57.328a15.26 15.26 0 01-6.894 10.229l-22.14 14.098a16.345 16.345 0 01-4.48 1.97h-.002a17.576 17.576 0 01-18.86-6.992 16.258 16.258 0 01-2.78-12.285 15.724 15.724 0 01.54-2.067l.414-1.27 1.135.833a28.548 28.548 0 008.639 4.318l.822.248-.076.822a4.951 4.951 0 00.89 3.288 5.286 5.286 0 005.68 2.107 4.86 4.86 0 001.362-.596l22.139-14.098a4.606 4.606 0 002.078-3.082 4.86 4.86 0 00-.836-3.71 5.302 5.302 0 00-5.682-2.106 4.903 4.903 0 00-1.355.594l-8.444 5.4a16.242 16.242 0 01-4.494 1.977 17.576 17.576 0 01-18.871-7.02 16.28 16.28 0 01-2.78-12.307A15.249 15.249 0 0143.9 27.46l22.14-14.104a16.199 16.199 0 014.497-1.97 17.57 17.57 0 013.524-.54zm-55.415 97.747a6.366 6.366 0 00-4.32 1.41 4.476 4.476 0 00-1.62 3.483 4.38 4.38 0 00.309 1.793 4.73 4.73 0 00.787 1.3 5.2 5.2 0 001.313.99 12.792 12.792 0 001.408.712c.372.14.908.34 1.62.588.573.194 1.005.357 1.302.47.297.114.665.287 1.113.508a3.78 3.78 0 01.992.659 3.202 3.202 0 01.569.82 2.295 2.295 0 01.253 1.08 2.608 2.608 0 01-.923 2.16 3.78 3.78 0 01-2.479.75 4.487 4.487 0 01-2.598-.765 4.86 4.86 0 01-1.716-2.075l-2.625.961a6.226 6.226 0 002.517 3.338 7.56 7.56 0 004.319 1.219 7.02 7.02 0 004.638-1.484 5.065 5.065 0 001.76-4.114 5.47 5.47 0 00-.2-1.511 5.815 5.815 0 00-.48-1.211 4.136 4.136 0 00-.814-.971 10.286 10.286 0 00-.936-.762 7.754 7.754 0 00-1.154-.633 20.858 20.858 0 00-1.14-.496l-1.188-.443c-.88-.303-1.527-.54-1.96-.723a4.11 4.11 0 01-1.192-.853 1.739 1.739 0 01-.59-1.291 1.976 1.976 0 01.761-1.657 3.364 3.364 0 012.106-.59 4.196 4.196 0 012.16.542 2.986 2.986 0 011.248 1.38l2.531-.863a4.92 4.92 0 00-1.992-2.7 6.566 6.566 0 00-3.78-1.02zm65.968.303v2.7h5.306v16.076h2.766v-16.077h5.324v-2.699zm-55.001.022l6.43 18.754h2.787l6.404-18.754h-2.976l-4.206 13.072a21.318 21.318 0 00-.588 2.16 21.318 21.318 0 00-.59-2.16l-4.26-13.072zm21.3 0v18.754h12.22v-2.625H53.7v-5.735h5.707v-2.625h-5.707v-5.144h8.844v-2.625zm19.321 0v18.754l11.965.021v-2.7h-9.18v-16.075zm33.515 0v18.754h12.22v-2.625h-9.433v-5.735h5.707v-2.625h-5.707v-5.144h8.844v-2.625z"/></svg>
