<svg xmlns="http://www.w3.org/2000/svg" viewBox="0 0 128 128"><path d="M63.807 16.667c-4.299 0-8.598 1.399-12.297 3.698-9.996 6.398-14.994 18.694-15.094 30.89v.4h-.1c0 13.495 3.398 27.29 10.696 38.486 4.998 7.797 11.896 14.494 20.492 18.193 9.497 4.098 20.593 3.998 30.09-.4 10.596-4.899 18.793-14.595 23.792-25.491 8.597-18.994 8.796-41.384.699-60.377-6.098 2.399-11.496-1.4-11.496-1.4s0 5.998-5.797 8.997c5.898 13.895 5.797 30.488-.201 44.084-2.9 6.497-7.296 12.595-13.294 16.093-4.898 2.8-10.897 3.3-16.295 1-7.198-3.099-12.196-9.897-15.395-17.394-2.8-6.598-4.197-13.895-4.297-21.092v-.799c0-2.799.398-5.699 1.397-8.298 1.1-3.099 2.9-6.098 5.7-7.298.5-.2.999-.299 1.599-.299.5 0 1.099.1 1.599.3 2.799 1.199 4.6 4.298 5.699 7.297 1 2.7 1.398 5.5 1.398 8.298v.799c-.1 5.198-.799 10.396-2.298 15.395-.2.7-.4 1.3-.6 1.999l-.3.9c-.3.9-.7 1.898-1.1 2.798-.3.8-.7 1.5-1 2.2v.1c-.399.7-.698 1.399-1.098 2.099 2.799 4.398 6.296 7.697 10.295 9.397 1.8.8 3.599 1.099 5.498 1.198.5-.8 1-1.699 1.4-2.499.1-.2.3-.499.4-.699.3-.7.7-1.3 1-1.999.1-.2.198-.499.298-.699l1.201-2.7c.1-.1.1-.3.2-.4l.9-2.398c0-.1.099-.2.099-.4v-.1c2.799-7.897 4.098-16.494 4.098-24.891h-.1v-.4c-.1-12.196-5.097-24.592-15.094-30.89-3.698-2.3-7.998-3.698-12.296-3.698Zm-46.384 4.098s-5.398 3.9-11.496 1.4c-8.097 18.993-7.898 41.485.6 60.178 4.997 10.996 13.095 20.593 23.791 25.491.9.4 1.899.8 2.798 1.2.2.1.501.2.701.3.2.1.4.1.6.2.4.1.799.299 1.198.399.2.1.4.101.6.201l1.2.299c1.1.3 2.2.501 3.4.601.1 0 .198 0 .398.1.5.1 1 .1 1.5.1h.4c.4 0 .8-.001 1.2.099h2.6c.299 0 .6 0 .9-.1.3 0 .597 0 .897-.1.4 0 .801-.099 1.201-.099.2 0 .4-.002.6-.101.4-.1.8-.1 1.3-.2.2 0 .4-.1.6-.1.4-.1.699-.1 1.098-.2.3-.1.501-.1.8-.2l1.2-.3c.2-.1.399-.1.699-.2.4-.1.8-.3 1.2-.4.2-.1.4-.099.6-.199.4-.1.7-.3 1-.4.2-.1.499-.2.698-.3-6.097-4-11.594-9.696-15.892-16.393-.4-.1-.702-.201-1.102-.201-.3 0-.498-.1-.798-.1-.4-.1-.8-.2-1.3-.3-.2-.1-.4-.1-.5-.1-.4-.1-.7-.3-1.1-.4-.2-.1-.399-.2-.599-.2l-.6-.3c-.4-.2-.7-.3-1.1-.5-6.098-3.399-10.496-9.496-13.295-16.094-5.997-13.595-6.099-30.089-.2-44.084-5.799-2.999-5.797-8.997-5.797-8.997Z"/></svg>
