<svg xmlns="http://www.w3.org/2000/svg" viewBox="0 0 128 128"><path d="M22.44 47.426c-1.516 0-3.032.504-4.345 1.312-3.435 2.222-5.252 6.567-5.252 10.81v.1c0 4.748 1.211 9.597 3.837 13.537 1.718 2.727 4.144 5.05 7.174 6.262 3.333 1.515 7.17 1.414 10.504-.1 3.738-1.718 6.567-5.052 8.284-8.891 2.93-6.566 3.03-14.444.202-21.11-2.122.909-4.041-.506-4.041-.506s0 2.121-2.02 3.131c2.02 4.95 2.02 10.707-.1 15.455-1.011 2.323-2.526 4.446-4.647 5.658-1.717.91-3.84 1.11-5.76.302-2.525-1.01-4.24-3.435-5.352-6.061a18.526 18.526 0 0 1-1.515-7.373v-.304c0-1.01.202-2.02.505-2.93.404-1.01 1.01-2.121 2.02-2.525.202-.101.404-.1.606-.1.101 0 .404-.001.505.1 1.01.404 1.616 1.414 2.02 2.525.404.91.505 1.92.505 2.93v.304c0 2.525-.505 5.05-1.515 7.373a11.04 11.04 0 0 0-.404.757c-.127.253-.253.506-.405.758 1.01 1.616 2.224 2.728 3.638 3.334a3.634 3.634 0 0 0 .922.316c.315.063.643.089.996.089a17.342 17.342 0 0 0 .722-1.304c.062-.12.122-.242.182-.363.398-.813.76-1.643 1.116-2.476.06-.178.086-.351.087-.523.854-2.644 1.266-5.454 1.328-8.265v-.1c0-4.243-1.716-8.588-5.252-10.81-1.313-.808-2.83-1.312-4.344-1.312h-.101zM6.175 48.94s-1.919 1.313-4.04.505c-2.93 6.667-2.83 14.547.201 21.113 1.818 3.737 4.647 7.17 8.385 8.888 3.233 1.414 7.07 1.516 10.303.203a18.501 18.501 0 0 1-.785-.555c-1.811-1.347-3.457-3.083-4.872-5.204-.808-.101-1.616-.403-2.424-.807a1.231 1.231 0 0 0-.399-.144c-1.914-1.24-3.302-3.237-4.248-5.412-2.121-4.748-2.12-10.607-.1-15.456-2.02-1.01-2.02-3.131-2.02-3.131Zm44.85 11.011 2.223 11.413h2.425l1.412-6.06c.101-.404.203-.908.304-1.312.101-.404.203-.91.304-1.314h.1c0 .404.1.91.202 1.314.1.404.203.908.304 1.312l1.414 6.06h2.526l2.221-11.413h-1.92l-1.01 5.757-.301 1.82-.218 1.3c-.101-.434-.215-.867-.288-1.3-.1-.607-.303-1.214-.404-1.82l-1.415-5.757h-1.819l-1.412 5.757c-.202.606-.304 1.213-.405 1.82-.1.605-.303 1.21-.404 1.816h-.1l-.305-1.817-.302-1.819-1.01-5.757Zm16.466 0v11.413h7.07V69.65h-5.05v-3.334h4.141v-1.717h-4.141v-2.93h4.85v-1.716Zm10.707 0v11.514h3.94c.606 0 1.11-.1 1.716-.201a3.018 3.018 0 0 0 1.415-.606c.404-.202.707-.606.91-1.01.201-.404.303-.91.303-1.515 0-.808-.203-1.415-.607-1.82-.505-.504-1.01-.808-1.616-.909v-.1c.505-.202.91-.505 1.213-1.01.303-.506.403-1.01.403-1.516 0-.505-.1-.908-.302-1.312-.202-.404-.405-.707-.81-.91-.403-.201-.806-.403-1.311-.504-.505-.101-1.012-.101-1.618-.101zm11.82 0v11.413h6.767V69.65h-4.747v-9.697Zm12.323 0-3.737 11.413h2.02l.908-3.13h3.84l1.01 3.13h2.12l-3.736-11.413Zm6.666 0v1.716h3.335v9.697h2.02v-9.697h3.332v-1.716Zm11.92 0v11.413H128V69.65h-5.05v-3.334h4.14v-1.717h-4.14v-2.93h4.847v-1.716Zm-17.475 1.515h.1c.202.606.303 1.312.505 1.918.101.707.303 1.314.505 1.92l.375 1.314h-2.9l.404-1.415c.202-.606.303-1.213.506-1.82.202-.605.303-1.31.505-1.917zm-23.334.1h1.515c.808 0 1.312.1 1.716.303.404.303.608.607.608 1.213 0 .505-.101.908-.505 1.211-.303.303-.91.405-1.719.405H80.12zm.1 4.647h1.719c.808 0 1.513.102 1.917.405.505.303.709.705.709 1.312 0 .606-.204 1.111-.709 1.414-.404.303-1.11.505-1.917.505h-1.719z"/></svg>
