<svg xmlns="http://www.w3.org/2000/svg" viewBox="0 0 128 128"><defs><linearGradient id="a" x1="-150.086" x2="-128.011" y1="-11.98" y2="-11.98" gradientTransform="matrix(.99308 0 0 1.02752 149.121 76.316)" gradientUnits="userSpaceOnUse"><stop offset="0" stop-color="#00d2e6"/><stop offset="1" stop-color="#2eccaa"/></linearGradient><linearGradient id="b" x1="-130.696" x2="-119.307" y1="-.952" y2="-6.318" gradientTransform="matrix(1.1749 0 0 .86853 167.303 76.316)" gradientUnits="userSpaceOnUse"><stop offset="0" stop-opacity="0"/><stop offset=".514"/><stop offset="1" stop-opacity="0"/></linearGradient><linearGradient id="c" x1="-104.893" x2="-126.931" y1="-11.998" y2="-11.998" gradientTransform="matrix(.99308 0 0 1.02752 149.121 76.316)" gradientUnits="userSpaceOnUse"><stop offset="0" stop-color="#1fa385"/><stop offset="1" stop-color="#2eccaa"/></linearGradient></defs><path fill="url(#a)" d="M28.803 72.578c-.707 0-1.313-.1-1.919-.404-1.414-.606-2.626-1.717-3.636-3.333.303-.505.505-1.01.808-1.515a18.531 18.531 0 0 0 1.515-7.374v-.304c0-1.01-.101-2.02-.505-2.929-.404-1.111-1.01-2.121-2.02-2.525-.102-.101-.405-.101-.506-.101-1.212-2.324-1.313-4.546 0-6.667h.101c1.516 0 3.03.505 4.344 1.313 3.536 2.222 5.253 6.566 5.253 10.808v.101c-.101 4.546-1.111 9.092-3.435 12.93zm-7.778 7.071c-3.232 1.314-7.07 1.213-10.303-.202-3.738-1.717-6.566-5.151-8.385-8.889-3.03-6.566-3.131-14.445-.202-21.112 2.122.808 4.041-.505 4.041-.505s0 2.121 2.02 3.131c-2.02 4.85-2.02 10.708.101 15.456 1.01 2.323 2.526 4.444 4.647 5.656.808.405 1.616.708 2.424.809 1.617 2.323 3.536 4.242 5.657 5.656z"/><path fill="url(#b)" d="M28.803 72.578c-.707 0-1.313-.1-1.919-.404-1.414-.606-2.626-1.717-3.636-3.333.303-.505.505-1.01.808-1.515.303-.708.606-1.415.808-2.122.505-1.717 6.869.505 5.96 3.233-.606 1.414-1.213 2.828-2.02 4.141zm-7.778 7.071c-3.232 1.314-7.07 1.213-10.303-.202-3.738-1.717.1-7.576 2.222-6.364.808.405 1.616.708 2.424.809 1.617 2.424 3.536 4.343 5.657 5.757z" opacity=".3"/><path fill="url(#c)" d="M12.843 59.648v-.1c0-4.243 1.818-8.587 5.253-10.81 1.313-.807 2.828-1.312 4.343-1.312h.101v6.667c-.202 0-.404 0-.606.1-1.01.405-1.616 1.516-2.02 2.526-.303.91-.505 1.92-.505 2.93v.303c0 2.525.505 5.05 1.515 7.374 1.111 2.626 2.829 5.05 5.354 6.06 1.92.809 4.04.607 5.758-.303 2.121-1.212 3.636-3.333 4.646-5.656 2.122-4.748 2.122-10.506.102-15.456 2.02-1.01 2.02-3.131 2.02-3.131s1.92 1.414 4.04.505c2.829 6.667 2.728 14.546-.202 21.112-1.717 3.839-4.545 7.172-8.283 8.89-3.333 1.515-7.172 1.616-10.505.1-3.03-1.212-5.455-3.535-7.172-6.263-2.627-3.94-3.839-8.788-3.839-13.536z"/><path d="M51.027 59.952h2.12l1.011 5.757.303 1.819.303 1.818h.101c.101-.606.303-1.212.404-1.818.101-.606.202-1.213.404-1.819l1.415-5.757h1.818l1.414 5.757c.101.606.303 1.213.404 1.819.101.606.303 1.212.404 1.818h-.202l.303-1.818.303-1.819 1.01-5.757h1.92l-2.223 11.414h-2.525l-1.414-6.06c-.101-.405-.202-.91-.303-1.314-.101-.404-.202-.909-.202-1.313h-.101c-.101.404-.202.91-.303 1.313-.101.404-.202.91-.303 1.313l-1.415 6.061H53.25zm16.465 0h6.87v1.717h-4.85v2.93h4.142v1.716h-4.142v3.334h5.051v1.717h-7.07zm10.708 0h3.636c.606 0 1.111 0 1.616.1.505.102.91.304 1.314.506s.606.505.808.909c.202.404.303.808.303 1.313a2.85 2.85 0 0 1-.404 1.515c-.303.505-.707.808-1.212 1.01v.101c.606.101 1.11.404 1.616.91.404.404.606 1.01.606 1.818 0 .606-.101 1.11-.303 1.515-.202.404-.505.808-.91 1.01a3.017 3.017 0 0 1-1.414.606c-.606.101-1.11.202-1.717.202H78.2zm3.535 4.747c.808 0 1.414-.1 1.717-.404.404-.303.505-.707.505-1.212 0-.606-.202-.91-.606-1.212-.404-.202-.909-.303-1.717-.303H80.12v3.131zm.202 5.152c.808 0 1.515-.202 1.92-.505.505-.303.707-.808.707-1.414 0-.606-.202-1.01-.708-1.314-.404-.303-1.11-.404-1.919-.404H80.22v3.637zm8.081-9.9h2.02v9.698h4.748v1.717h-6.768zm15.355 8.284h-3.839l-.91 3.131h-2.02l3.738-11.414h2.425l3.737 11.414h-2.121zm-.404-1.515-.404-1.415c-.203-.606-.405-1.212-.506-1.919-.202-.606-.303-1.313-.505-1.92h-.1c-.203.607-.304 1.314-.506 1.92-.202.606-.303 1.212-.505 1.818l-.404 1.414h2.93zm7.374-5.051h-3.334v-1.717h8.687v1.717h-3.333v9.697h-2.02zm8.586-1.717h6.869v1.717h-4.849v2.93h4.142v1.716h-4.142v3.334H128v1.717h-7.071z"/></svg>
