<svg xmlns="http://www.w3.org/2000/svg" xmlns:xlink="http://www.w3.org/1999/xlink" viewBox="0 0 128 128"><defs><linearGradient xlink:href="#a" id="k" x1="5.34" x2="24.67" y1="2.46" y2="2.46" gradientTransform="translate(-4.88 46.51) scale(1.16486)"/><linearGradient id="a" x1="12.3" x2="12.3" y1="8.53" y2="4.06" gradientUnits="userSpaceOnUse"><stop offset=".1" stop-color="#2dc4ed" stop-opacity="0"/><stop offset=".23" stop-color="#2dc4ed" stop-opacity=".01"/><stop offset=".34" stop-color="#2dc4ed" stop-opacity=".06"/><stop offset=".45" stop-color="#2dc4ed" stop-opacity=".13"/><stop offset=".55" stop-color="#2dc4ed" stop-opacity=".24"/><stop offset=".6" stop-color="#2dc4ed" stop-opacity=".3"/><stop offset=".8" stop-color="#2dc4ed" stop-opacity=".3"/><stop offset="1" stop-color="#2dc4ed" stop-opacity=".1"/></linearGradient><linearGradient xlink:href="#b" id="j" x1="10.55" x2="18.22" y1="21.89" y2="8.59" gradientTransform="translate(-4.88 46.51) scale(1.16486)"/><linearGradient id="b" x1="8.76" x2="21.25" y1="6.42" y2="6.42" gradientTransform="rotate(180 15.005 6.425)" gradientUnits="userSpaceOnUse"><stop offset=".41" stop-color="#fff" stop-opacity="0"/><stop offset=".51" stop-color="#fff" stop-opacity=".15"/><stop offset=".74" stop-color="#fff" stop-opacity=".53"/><stop offset="1" stop-color="#fff"/></linearGradient><linearGradient id="i" x1="15" x2="15" y1="29.06" y2="20.35" gradientTransform="translate(-4.88 46.51) scale(1.16486)" gradientUnits="userSpaceOnUse"><stop offset=".41" stop-color="#fff" stop-opacity="0"/><stop offset=".51" stop-color="#fff" stop-opacity=".15"/><stop offset=".74" stop-color="#fff" stop-opacity=".53"/><stop offset="1" stop-color="#fff"/></linearGradient><linearGradient xlink:href="#a" id="h" x1="5.72" x2="24.28" y1="11.39" y2="11.39" gradientTransform="translate(-4.88 46.51) scale(1.16486)"/><linearGradient xlink:href="#b" id="g" x1="7.9" x2="22.11" y1="10.24" y2="10.24" gradientTransform="translate(-4.88 46.51) scale(1.16486)"/><linearGradient xlink:href="#a" id="f" x1="-15290.78" x2="-15290.78" y1="8.53" y2="4.06" gradientTransform="matrix(-1.16486 0 0 1.16486 -17795.918 46.51)"/><linearGradient xlink:href="#a" id="e" x1="12.3" x2="12.3" y1="8.53" y2="4.06" gradientTransform="translate(-4.88 46.51) scale(1.16486)" gradientUnits="userSpaceOnUse"/><linearGradient id="d" x1="21.17" x2="21.17" y1="3.9" y2="4.06" gradientUnits="userSpaceOnUse"><stop offset=".28" stop-color="#fff" stop-opacity="0"/><stop offset=".39" stop-color="#fff" stop-opacity=".01"/><stop offset=".48" stop-color="#fff" stop-opacity=".06"/><stop offset=".57" stop-color="#fff" stop-opacity=".13"/><stop offset=".65" stop-color="#fff" stop-opacity=".22"/><stop offset=".73" stop-color="#fff" stop-opacity=".35"/><stop offset=".81" stop-color="#fff" stop-opacity=".51"/><stop offset=".89" stop-color="#fff" stop-opacity=".69"/><stop offset=".97" stop-color="#fff" stop-opacity=".9"/><stop offset="1" stop-color="#fff"/></linearGradient><linearGradient xlink:href="#b" id="c" x1="8.76" x2="21.25" y1="6.42" y2="6.42" gradientTransform="rotate(180 2.44 -23.255) scale(1.16486)" gradientUnits="userSpaceOnUse"/></defs><path fill="#002d4f" d="m127.905 72.233-3.914-5.639c2.34-.85 3.947-2.72 3.947-5.661v-.066c0-3.768-2.63-6.015-6.964-6.015h-7.887a.571.571 0 0 0-.578.57v17.124c0 .316.258.57.578.57h2.916a.571.571 0 0 0 .578-.57v-5.284h3.21l3.781 5.6a.573.573 0 0 0 .485.253h3.365c.45 0 .737-.507.483-.882zm-4.074-11.08c0 1.55-1.122 2.56-3.11 2.56h-4.107v-5.22h4.042c1.987 0 3.21.884 3.21 2.594v.067zm-29.99-6.268h-3.05a.55.55 0 0 0-.546.41l-3.72 11.967-4.007-12.03a.56.56 0 0 0-.547-.38H79.31c-.254 0-.449.158-.547.38l-4.007 12.03-3.72-11.97a.58.58 0 0 0-.545-.407h-3.11c-.386 0-.672.38-.547.729l5.935 17.248c.06.221.286.381.545.381h2.726a.587.587 0 0 0 .544-.381l4.042-11.554 4.045 11.554c.06.221.286.381.545.381h2.725c.253 0 .446-.16.545-.381l5.934-17.248c.06-.348-.193-.728-.577-.728zm15.908 14.655h-9.462v-3.83h8.147a.572.572 0 0 0 .577-.568v-2.437a.57.57 0 0 0-.578-.57h-8.146v-3.674h9.337a.572.572 0 0 0 .577-.568v-2.438a.572.572 0 0 0-.577-.57h-12.8a.571.571 0 0 0-.578.57v17.091c0 .316.258.57.578.57h12.925a.571.571 0 0 0 .578-.57V70.11a.572.572 0 0 0-.578-.57zM57.051 54.565c-5.709 0-9.85 4.244-9.85 9.436v.06c0 5.192 4.108 9.374 9.783 9.374 5.709 0 9.848-4.243 9.848-9.434v-.06c0-5.166-4.073-9.375-9.781-9.375zm5.55 9.497c0 3.134-2.28 5.665-5.55 5.665-3.275 0-5.614-2.593-5.614-5.726v-.06c0-3.135 2.277-5.668 5.547-5.668 3.271 0 5.615 2.594 5.615 5.728zm-16.07-9.176H32.35a.572.572 0 0 0-.58.569v2.564c0 .283.194.508.484.537h5.164v13.99a.57.57 0 0 0 .578.57h2.92a.572.572 0 0 0 .576-.57V58.555h5.163a.566.566 0 0 0 .48-.537v-2.563c-.06-.316-.286-.57-.605-.57zm0 0"/><path fill="none" d="M8.564 59.935h8.057v8.13H8.564z" style="isolation:isolate"/><path fill="#2dc4ed" d="M19.873 56.935H5.324v-5.871h14.549z" style="isolation:isolate"/><path fill="url(#c)" d="M-19.873-56.935h14.549v5.871h-14.549z" opacity=".6" style="isolation:isolate" transform="scale(-1)"/><path fill="#fff" d="m19.873 54.315-2.597 2.62h2.597z" opacity=".2" style="isolation:isolate"/><path fill="url(#d)" d="m21.09 3.9.16.16V3.9z" style="isolation:isolate" transform="translate(-4.88 46.51) scale(1.16486)"/><path fill="#fff" d="M19.186 51.053h-7.513l-5.813 5.87h7.513z" opacity=".35" style="isolation:isolate"/><path fill="#fff" d="m5.324 54.862 3.774-3.809H5.324z" opacity=".2" style="isolation:isolate;mix-blend-mode:overlay"/><path fill="#0d2e4f" d="M19.873 56.97H5.324v-.536h14.549z" style="isolation:isolate"/><path fill="#004a72" d="M5.323 51.053h14.549v.629H5.323z" opacity=".33" style="isolation:isolate;mix-blend-mode:multiply"/><path fill="#0d2e4f" d="M15.399 51.239h.571v5.207h-.571zm-6.173 0h.571v5.207h-.571z" style="isolation:isolate"/><path fill="url(#e)" d="M9.226 51.239h.431v5.207h-.431z" style="isolation:isolate"/><path fill="url(#f)" d="M15.528 51.239h.431v5.207h-.431z" style="isolation:isolate"/><path fill="#004a72" d="M9.797 51.239h.128v5.207h-.128zm5.474 0h.128v5.207h-.128z" opacity=".3" style="isolation:isolate"/><path fill="#ffc709" d="m4.834 56.993-.512 2.913h16.552l-.512-2.913a.14.14 0 0 0-.14-.116H4.962a.14.14 0 0 0-.128.116z" style="isolation:isolate"/><path fill="url(#g)" d="m4.834 56.993-.512 2.913h16.552l-.512-2.913a.14.14 0 0 0-.14-.116H4.962a.14.14 0 0 0-.128.116z" opacity=".45" style="isolation:isolate;mix-blend-mode:overlay"/><path fill="#fff" d="M4.962 56.923a.14.14 0 0 0-.128.117h15.528v-.047a.14.14 0 0 0-.14-.116z" opacity=".38" style="isolation:isolate;mix-blend-mode:overlay"/><path fill="#814c1f" d="M20.502 57.856H4.695l-.35 1.933h16.507z" opacity=".3" style="isolation:isolate;mix-blend-mode:multiply"/><path fill="#0d2e4f" d="m2.306 58.38-.524 2.912h21.62l-.512-2.912a.14.14 0 0 0-.129-.117H2.435a.14.14 0 0 0-.129.117z" style="isolation:isolate"/><path fill="url(#h)" d="m2.306 58.38-.524 2.912h21.62l-.512-2.912a.14.14 0 0 0-.129-.117H2.435a.14.14 0 0 0-.129.117z" style="isolation:isolate"/><path fill="#0d2e4f" d="m23.414 61.292-.174-.745H1.958l-.175.745z" opacity=".35" style="isolation:isolate;mix-blend-mode:multiply"/><path fill="#2dc4ed" d="M6.616 77.96h11.8a.14.14 0 0 1 .14.14v3.17a.14.14 0 0 1-.14.139h-11.8a.128.128 0 0 1-.128-.128v-3.204a.14.14 0 0 1 .128-.116z" style="isolation:isolate"/><path fill="#2dc4ed" d="M6.489 80.559v-3.262h12.103v3.262" style="isolation:isolate;mix-blend-mode:multiply"/><path fill="#004a72" d="M5.603 70.215V80.22a.14.14 0 0 0 .14.14h13.629a.14.14 0 0 0 .14-.14V70.215z" style="isolation:isolate"/><path fill="url(#i)" d="M5.603 70.215V80.22a.14.14 0 0 0 .14.14h13.629a.14.14 0 0 0 .14-.14V70.215z" opacity=".42" style="isolation:isolate;mix-blend-mode:overlay"/><path fill="#0d2e4f" d="M5.603 80.22a.14.14 0 0 0 .14.14h13.629a.14.14 0 0 0 .14-.14zm13.943-9.19H5.638v-.839h13.908z" style="isolation:isolate"/><path fill="#0d2e4f" d="M9.202 80.36H5.871a.198.198 0 0 1-.198-.198v-9.947h3.53z" opacity=".4" style="isolation:isolate;mix-blend-mode:multiply"/><path fill="#fff" d="M19.395 80.36h-3.413V70.216h3.495v9.982a.163.163 0 0 1-.164.164z" opacity=".4" style="isolation:isolate;mix-blend-mode:overlay"/><path fill="#ffc709" d="M24.474 61.222H.71a.14.14 0 0 0-.129.105L0 63.657l4.159 6.394a.256.256 0 0 0 .21.117h16.447a.256.256 0 0 0 .21-.117l4.158-6.395-.582-2.33a.14.14 0 0 0-.128-.104z" style="isolation:isolate"/><path fill="#ffc709" d="M24.474 61.222H.71a.14.14 0 0 0-.129.105L0 63.657l4.159 6.371a.28.28 0 0 0 .233.14h16.354a.28.28 0 0 0 .233-.14l4.159-6.372-.583-2.33a.14.14 0 0 0-.081-.104z" style="isolation:isolate"/><path fill="url(#j)" d="M24.474 61.222H.71a.14.14 0 0 0-.129.105L0 63.657l4.159 6.371a.28.28 0 0 0 .233.14h16.354a.28.28 0 0 0 .233-.14l4.159-6.372-.583-2.33a.14.14 0 0 0-.081-.104z" opacity=".63" style="isolation:isolate;mix-blend-mode:overlay"/><path fill="#b27e4f" d="m9.004 70.086-4.158-6.371.582-2.33a.151.151 0 0 1 .175-.163H.711a.14.14 0 0 0-.129.105L0 63.657l4.159 6.371a.28.28 0 0 0 .233.14h4.857a.303.303 0 0 1-.245-.082z" opacity=".3" style="isolation:isolate;mix-blend-mode:multiply"/><path fill="#fff" d="m16.18 70.086 4.159-6.371-.583-2.33a.151.151 0 0 0-.14-.105h4.858a.14.14 0 0 1 .128.105l.582 2.33-4.158 6.371a.28.28 0 0 1-.233.14h-4.858a.303.303 0 0 0 .245-.14z" opacity=".4" style="isolation:isolate;mix-blend-mode:overlay"/><path fill="#0d2e4f" d="M2.435 58.263a.14.14 0 0 0-.129.117H22.89a.14.14 0 0 0-.129-.117z" style="isolation:isolate;mix-blend-mode:multiply"/><path fill="#ffc709" d="M2.76 47.674h19.675l-.268-.966a.163.163 0 0 0-.151-.117H3.133a.14.14 0 0 0-.14.117z" style="isolation:isolate"/><path fill="#b47d4f" d="M2.761 47.721h19.675l-.082-.29H2.831z" opacity=".3" style="isolation:isolate;mix-blend-mode:multiply"/><path fill="#0d2e4f" d="M1.957 51.262h21.27a.105.105 0 0 0 .105-.093l.524-3.495H1.34l.524 3.495a.093.093 0 0 0 .093.093z" style="isolation:isolate"/><path fill="url(#k)" d="M1.957 51.03h21.27a.105.105 0 0 0 .105-.082l.524-3.274H1.34l.524 3.227a.093.093 0 0 0 .093.128z" style="isolation:isolate"/><path fill="#fff" d="M1.364 47.861h22.47l.023-.14H1.34z" style="isolation:isolate;mix-blend-mode:overlay"/><path fill="#fff" d="M25.127 63.47H.059l-.058.245h25.184z" opacity=".4" style="isolation:isolate;mix-blend-mode:overlay"/><path fill="#b27e4f" d="M25.184 63.715H0l4.159 6.371a.28.28 0 0 0 .233.14h16.354a.28.28 0 0 0 .233-.14l4.159-6.371z" opacity=".6" style="isolation:isolate;mix-blend-mode:multiply"/></svg>
