<svg xmlns="http://www.w3.org/2000/svg" viewBox="0 0 128 128"><path d="M3.133 46.592a.14.14 0 0 0-.139.115l-.234.967H1.34l.523 3.496a.093.093 0 0 0 .094.092h3.117v5.615h-.111a.14.14 0 0 0-.129.117l-.223 1.27H2.434a.14.14 0 0 0-.127.115l-.512 2.844H.71a.14.14 0 0 0-.129.103L0 63.656l.01.016.049-.201h25.068l.047.2.01-.015-.582-2.33a.14.14 0 0 0-.127-.103H23.39l-.502-2.844a.14.14 0 0 0-.127-.115h-2.176l-.225-1.27a.14.14 0 0 0-.049-.084.14.14 0 0 0-.09-.033h-.099v-5.616h3.104a.105.105 0 0 0 .105-.091l.523-3.496h-1.42l-.267-.967a.163.163 0 0 0-.152-.115H3.133zm2.441 4.67h3.653v5.172H5.574v-5.172zm4.223 0H15.4v5.172H9.797v-5.172zm6.174 0h3.652v5.172h-3.652v-5.172zm41.08 3.302c-5.709 0-9.85 4.245-9.85 9.436v.06c0 5.193 4.108 9.376 9.783 9.376 5.709 0 9.848-4.245 9.848-9.436v-.06c0-5.166-4.073-9.374-9.781-9.374v-.002zm22.258.288c-.255 0-.449.158-.547.38l-4.006 12.03-3.72-11.969a.58.58 0 0 0-.546-.408h-3.11c-.385 0-.67.38-.545.728l5.934 17.248c.06.221.286.381.544.381h2.727a.587.587 0 0 0 .545-.38l4.041-11.553L84.67 72.86c.06.221.286.381.545.381h2.724c.254 0 .447-.16.545-.38l5.936-17.249c.06-.348-.194-.726-.578-.726l-.002-.002h-3.05a.55.55 0 0 0-.545.41l-3.72 11.967-4.008-12.03a.56.56 0 0 0-.547-.38h-2.662zm33.777 0a.571.571 0 0 0-.576.57v17.125a.57.57 0 0 0 .576.568h2.918a.571.571 0 0 0 .576-.568v-5.285h3.211l3.781 5.6a.573.573 0 0 0 .485.253h3.365c.45 0 .737-.508.482-.883l-3.914-5.638c2.34-.85 3.948-2.721 3.948-5.662v-.065c0-3.768-2.63-6.015-6.963-6.015h-7.89zm-80.736.035a.572.572 0 0 0-.579.568v2.565c0 .282.193.508.483.537h5.166v13.99c0 .315.253.568.576.568h2.92a.572.572 0 0 0 .576-.568V58.555h5.164a.566.566 0 0 0 .48-.537v-2.563c-.06-.316-.286-.568-.605-.568H32.35zm64.474 0a.571.571 0 0 0-.578.568v17.092c0 .315.258.568.578.568h12.926a.571.571 0 0 0 .576-.568v-2.438a.572.572 0 0 0-.576-.57h-9.463v-3.828h8.147a.572.572 0 0 0 .576-.568v-2.438a.57.57 0 0 0-.576-.568h-8.147V58.46h9.336a.572.572 0 0 0 .578-.568v-2.438a.572.572 0 0 0-.578-.568H96.824zm-39.84 3.386c3.271 0 5.616 2.594 5.616 5.727v.063c0 3.134-2.28 5.664-5.55 5.664-3.274 0-5.614-2.594-5.614-5.727v-.06c0-3.135 2.279-5.667 5.548-5.667zm59.63.221h4.042c1.987 0 3.21.884 3.21 2.594v.066h-.036c0 1.55-1.121 2.56-3.11 2.56h-4.107v-5.22zM.038 63.714l4.12 6.337a.256.256 0 0 0 .21.117h16.447a.256.256 0 0 0 .21-.117l4.119-6.336H.039zm5.565 6.5v10.007a.14.14 0 0 0 .138.14h.746v.92a.128.128 0 0 0 .13.127h11.798a.14.14 0 0 0 .14-.138v-.909h.815a.14.14 0 0 0 .14-.14V70.215H5.605z"/></svg>
