<svg xmlns="http://www.w3.org/2000/svg" xmlns:xlink="http://www.w3.org/1999/xlink" viewBox="0 0 128 128"><defs><linearGradient id="b" x1="8.76" x2="21.25" y1="6.42" y2="6.42" gradientTransform="rotate(180 15.005 6.425)" gradientUnits="userSpaceOnUse"><stop offset=".41" stop-color="#fff" stop-opacity="0"/><stop offset=".51" stop-color="#fff" stop-opacity=".15"/><stop offset=".74" stop-color="#fff" stop-opacity=".53"/><stop offset="1" stop-color="#fff"/></linearGradient><linearGradient id="d" x1="21.17" x2="21.17" y1="3.9" y2="4.06" gradientUnits="userSpaceOnUse"><stop offset=".28" stop-color="#fff" stop-opacity="0"/><stop offset=".39" stop-color="#fff" stop-opacity=".01"/><stop offset=".48" stop-color="#fff" stop-opacity=".06"/><stop offset=".57" stop-color="#fff" stop-opacity=".13"/><stop offset=".65" stop-color="#fff" stop-opacity=".22"/><stop offset=".73" stop-color="#fff" stop-opacity=".35"/><stop offset=".81" stop-color="#fff" stop-opacity=".51"/><stop offset=".89" stop-color="#fff" stop-opacity=".69"/><stop offset=".97" stop-color="#fff" stop-opacity=".9"/><stop offset="1" stop-color="#fff"/></linearGradient><linearGradient id="a" x1="12.3" x2="12.3" y1="8.53" y2="4.06" gradientUnits="userSpaceOnUse"><stop offset=".1" stop-color="#2dc4ed" stop-opacity="0"/><stop offset=".23" stop-color="#2dc4ed" stop-opacity=".01"/><stop offset=".34" stop-color="#2dc4ed" stop-opacity=".06"/><stop offset=".45" stop-color="#2dc4ed" stop-opacity=".13"/><stop offset=".55" stop-color="#2dc4ed" stop-opacity=".24"/><stop offset=".6" stop-color="#2dc4ed" stop-opacity=".3"/><stop offset=".8" stop-color="#2dc4ed" stop-opacity=".3"/><stop offset="1" stop-color="#2dc4ed" stop-opacity=".1"/></linearGradient><linearGradient xlink:href="#a" id="f" x1="-15290.78" x2="-15290.78" y1="8.53" y2="4.06" gradientTransform="matrix(-4.28237 0 0 4.28237 -65405.126 -.3)"/><linearGradient xlink:href="#b" id="g" x1="7.9" x2="22.11" y1="10.24" y2="10.24" gradientTransform="translate(-.236 -.3) scale(4.28237)"/><linearGradient xlink:href="#a" id="h" x1="5.72" x2="24.28" y1="11.39" y2="11.39" gradientTransform="translate(-.236 -.3) scale(4.28237)"/><linearGradient id="i" x1="15" x2="15" y1="29.06" y2="20.35" gradientTransform="translate(-.236 -.3) scale(4.28237)" gradientUnits="userSpaceOnUse"><stop offset=".41" stop-color="#fff" stop-opacity="0"/><stop offset=".51" stop-color="#fff" stop-opacity=".15"/><stop offset=".74" stop-color="#fff" stop-opacity=".53"/><stop offset="1" stop-color="#fff"/></linearGradient><linearGradient xlink:href="#b" id="j" x1="10.55" x2="18.22" y1="21.89" y2="8.59" gradientTransform="translate(-.236 -.3) scale(4.28237)"/><linearGradient xlink:href="#a" id="k" x1="5.34" x2="24.67" y1="2.46" y2="2.46" gradientTransform="translate(-.236 -.3) scale(4.28237)"/><linearGradient xlink:href="#b" id="c" x1="8.76" x2="21.25" y1="6.42" y2="6.42" gradientTransform="rotate(180 .118 .15) scale(4.28237)" gradientUnits="userSpaceOnUse"/><linearGradient xlink:href="#a" id="e" x1="12.3" x2="12.3" y1="8.53" y2="4.06" gradientTransform="translate(-.236 -.3) scale(4.28237)" gradientUnits="userSpaceOnUse"/></defs><path fill="none" d="M49.19 49.055h29.62v29.89H49.19z" style="isolation:isolate"/><path fill="#2dc4ed" d="M90.765 38.027H37.278V16.444h53.487z" style="isolation:isolate"/><path fill="url(#c)" d="M-90.765-38.027h53.487v21.583h-53.487z" opacity=".6" style="isolation:isolate" transform="scale(-1)"/><path fill="#fff" d="M81.215 38.027h9.55v-9.635z" opacity=".2" style="isolation:isolate"/><path fill="url(#d)" d="M21.25 4.06V3.9h-.16z" style="isolation:isolate" transform="translate(-.236 -.3) scale(4.28237)"/><path fill="#fff" d="m60.617 16.402-21.37 21.583H66.87l21.37-21.583z" opacity=".35" style="isolation:isolate"/><path fill="#fff" d="M51.153 16.402H37.278v14.003z" opacity=".2" style="isolation:isolate;mix-blend-mode:overlay"/><path fill="#0d2e4f" d="M90.765 38.156H37.278v-1.97h53.487z" style="isolation:isolate"/><path fill="#004a72" d="M37.278 16.402h53.487v2.312H37.278z" opacity=".33" style="isolation:isolate;mix-blend-mode:multiply"/><path fill="#0d2e4f" d="M74.321 17.087h2.098v19.142h-2.098zm-22.697 0h2.098v19.142h-2.098z" style="isolation:isolate"/><path fill="url(#e)" d="M51.624 17.087h1.584v19.142h-1.584z" style="isolation:isolate"/><path fill="url(#f)" d="M74.792 17.087h1.584v19.142h-1.584z" style="isolation:isolate"/><path fill="#004a72" d="M53.722 17.087h.471v19.142h-.471zm20.127 0h.471v19.142h-.471z" opacity=".3" style="isolation:isolate"/><path fill="#ffc709" d="m35.48 38.242-1.885 10.706h60.853l-1.885-10.706a.514.514 0 0 0-.513-.429h-56.1a.514.514 0 0 0-.47.429z" style="isolation:isolate"/><path fill="url(#g)" d="m35.48 38.242-1.885 10.706h60.853l-1.885-10.706a.514.514 0 0 0-.513-.429h-56.1a.514.514 0 0 0-.47.429z" opacity=".45" style="isolation:isolate;mix-blend-mode:overlay"/><path fill="#fff" d="M35.95 37.985a.514.514 0 0 0-.47.428h57.083v-.171a.514.514 0 0 0-.513-.429z" opacity=".38" style="isolation:isolate;mix-blend-mode:overlay"/><path fill="#814c1f" d="m34.966 41.41-1.285 7.11h60.681l-1.285-7.11z" opacity=".3" style="isolation:isolate;mix-blend-mode:multiply"/><path fill="#0d2e4f" d="M26.187 43.338 24.26 54.044h79.48l-1.884-10.706a.514.514 0 0 0-.47-.429H26.657a.514.514 0 0 0-.471.429z" style="isolation:isolate"/><path fill="url(#h)" d="M26.187 43.338 24.26 54.044h79.48l-1.884-10.706a.514.514 0 0 0-.47-.429H26.657a.514.514 0 0 0-.471.429z" style="isolation:isolate"/><path fill="#0d2e4f" d="M103.14 51.303H24.903l-.642 2.74h79.523z" opacity=".35" style="isolation:isolate;mix-blend-mode:multiply"/><path fill="#2dc4ed" d="M42.031 115.324h43.38a.514.514 0 0 1 .515.514v11.648a.514.514 0 0 1-.514.514h-43.38a.471.471 0 0 1-.472-.471v-11.777a.514.514 0 0 1 .471-.428z" style="isolation:isolate"/><path fill="#2dc4ed" d="M41.56 124.874v-11.99h44.494v11.99" style="isolation:isolate;mix-blend-mode:multiply"/><path fill="#004a72" d="M38.306 86.846v36.786a.514.514 0 0 0 .514.514h50.103a.514.514 0 0 0 .514-.514V86.846z" style="isolation:isolate"/><path fill="url(#i)" d="M38.306 86.846v36.786a.514.514 0 0 0 .514.514h50.103a.514.514 0 0 0 .514-.514V86.846z" opacity=".42" style="isolation:isolate;mix-blend-mode:overlay"/><path fill="#0d2e4f" d="M38.306 123.632a.514.514 0 0 0 .514.514h50.103a.514.514 0 0 0 .514-.514zm51.26-33.788H38.435v-3.083h51.131z" style="isolation:isolate"/><path fill="#0d2e4f" d="M51.538 124.146H39.291a.728.728 0 0 1-.728-.728V86.846h12.975z" opacity=".4" style="isolation:isolate;mix-blend-mode:multiply"/><path fill="#fff" d="M89.009 124.146H76.462v-37.3h12.847v36.7a.6.6 0 0 1-.6.6z" opacity=".4" style="isolation:isolate;mix-blend-mode:overlay"/><path fill="#ffc709" d="M107.68 53.787H20.32a.514.514 0 0 0-.471.385l-2.141 8.565 15.288 23.51a.942.942 0 0 0 .77.428h60.468a.942.942 0 0 0 .77-.428l15.288-23.51-2.14-8.565a.514.514 0 0 0-.472-.385z" style="isolation:isolate"/><path fill="#ffc709" d="M107.68 53.787H20.32a.514.514 0 0 0-.471.385l-2.141 8.565L32.996 86.16a1.028 1.028 0 0 0 .856.514h60.125a1.028 1.028 0 0 0 .856-.514l15.288-23.424-2.141-8.565a.514.514 0 0 0-.3-.385z" style="isolation:isolate"/><path fill="url(#j)" d="M107.68 53.787H20.32a.514.514 0 0 0-.471.385l-2.141 8.565L32.996 86.16a1.028 1.028 0 0 0 .856.514h60.125a1.028 1.028 0 0 0 .856-.514l15.288-23.424-2.141-8.565a.514.514 0 0 0-.3-.385z" opacity=".63" style="isolation:isolate;mix-blend-mode:overlay"/><path fill="#b27e4f" d="M50.81 86.375 35.522 62.951l2.141-8.565a.557.557 0 0 1 .643-.6H20.32a.514.514 0 0 0-.471.386l-2.141 8.565L32.996 86.16a1.028 1.028 0 0 0 .856.514H51.71a1.113 1.113 0 0 1-.9-.3z" opacity=".3" style="isolation:isolate;mix-blend-mode:multiply"/><path fill="#fff" d="m77.19 86.375 15.288-23.424-2.141-8.565a.557.557 0 0 0-.514-.385h17.857a.514.514 0 0 1 .471.385l2.141 8.565-15.288 23.424a1.028 1.028 0 0 1-.856.514H76.29a1.113 1.113 0 0 0 .9-.514z" opacity=".4" style="isolation:isolate;mix-blend-mode:overlay"/><path fill="#0d2e4f" d="M26.658 42.91a.514.514 0 0 0-.471.428h75.67a.514.514 0 0 0-.472-.429z" style="isolation:isolate;mix-blend-mode:multiply"/><path fill="#ffc709" d="M27.857 3.983h72.329L99.201.428A.6.6 0 0 0 98.644 0H29.227a.514.514 0 0 0-.514.428z" style="isolation:isolate"/><path fill="#b47d4f" d="m100.186 4.154-.3-1.07H28.114l-.257 1.07z" opacity=".3" style="isolation:isolate;mix-blend-mode:multiply"/><path fill="#0d2e4f" d="M24.902 17.172h78.196a.385.385 0 0 0 .385-.342l1.927-12.847H22.632L24.56 16.83a.343.343 0 0 0 .343.342z" style="isolation:isolate"/><path fill="url(#k)" d="M24.902 16.316h78.196a.385.385 0 0 0 .385-.3l1.927-12.033H22.632l1.927 11.862a.343.343 0 0 0 .343.47z" style="isolation:isolate"/><path fill="#fff" d="m105.325 4.668.085-.514H22.632l.086.514z" style="isolation:isolate;mix-blend-mode:overlay"/><path fill="#fff" d="m17.922 62.052-.214.899h92.584l-.214-.9z" opacity=".4" style="isolation:isolate;mix-blend-mode:overlay"/><path fill="#b27e4f" d="M110.292 62.95H17.708l15.288 23.425a1.028 1.028 0 0 0 .856.514h60.125a1.028 1.028 0 0 0 .856-.514l15.288-23.424z" opacity=".6" style="isolation:isolate;mix-blend-mode:multiply"/></svg>
