<svg xmlns="http://www.w3.org/2000/svg" viewBox="0 0 128 128"><path d="M29.224 0a.514.514 0 00-.51.424l-.861 3.554h-5.22l1.924 12.853a.343.343 0 00.345.338h11.46v20.644h-.41a.514.514 0 00-.474.43l-.818 4.668h-8.006a.514.514 0 00-.467.423L24.306 53.79H20.32a.514.514 0 00-.474.38l-2.14 8.567.037.058.18-.74h92.161l.173.74.036-.058-2.14-8.566a.514.514 0 00-.466-.38h-3.985l-1.846-10.456a.514.514 0 00-.466-.423h-8l-.825-4.668a.514.514 0 00-.18-.308.514.514 0 00-.33-.122h-.366V17.169h11.41a.385.385 0 00.388-.338l1.924-12.853h-5.22L99.206.424a.6.6 0 00-.56-.424zM38.2 17.169h13.427v19.014H38.2zm15.524 0h20.601v19.014h-20.6zm22.698 0h13.427v19.014H76.422zM17.85 62.952l15.144 23.293a.942.942 0 00.775.431h60.468a.942.942 0 00.768-.43l15.144-23.294zm20.458 23.896v36.786a.514.514 0 00.51.517h2.742v3.382a.471.471 0 00.474.467h43.378a.514.514 0 00.517-.51v-3.339h2.994a.514.514 0 00.517-.517V86.848z"/></svg>
